<svg xmlns="http://www.w3.org/2000/svg" xmlns:xlink="http://www.w3.org/1999/xlink" width="1024" zoomAndPan="magnify" viewBox="0 0 768 576" height="768" preserveAspectRatio="xMidYMid meet" version="1.0"><defs><g/><clipPath id="94a0f175bd"><path d="M 406.738281 242.132812 L 509.488281 242.132812 L 509.488281 344.882812 L 406.738281 344.882812 Z M 406.738281 242.132812 " clip-rule="nonzero"/></clipPath></defs><g clip-path="url(#94a0f175bd)"><path fill="#ffffff" d="M 458.113281 251.472656 C 434.898438 251.472656 416.078125 270.292969 416.078125 293.507812 C 416.078125 316.722656 434.898438 335.539062 458.113281 335.539062 C 481.328125 335.539062 500.148438 316.722656 500.148438 293.507812 C 500.148438 270.292969 481.328125 251.472656 458.113281 251.472656 Z M 406.738281 293.507812 C 406.738281 265.132812 429.738281 242.132812 458.113281 242.132812 C 486.488281 242.132812 509.488281 265.132812 509.488281 293.507812 C 509.488281 321.878906 486.488281 344.882812 458.113281 344.882812 C 429.738281 344.882812 406.738281 321.878906 406.738281 293.507812 Z M 406.738281 293.507812 " fill-opacity="1" fill-rule="evenodd"/></g><path fill="#ffffff" d="M 441.300781 281.828125 C 441.300781 274.089844 447.574219 267.820312 455.3125 267.820312 L 469.792969 267.820312 L 469.792969 277.160156 L 455.3125 277.160156 C 452.734375 277.160156 450.640625 279.25 450.640625 281.828125 L 450.640625 284.164062 C 450.640625 286.746094 452.734375 288.835938 455.3125 288.835938 L 460.917969 288.835938 C 468.65625 288.835938 474.929688 295.109375 474.929688 302.847656 L 474.929688 305.183594 C 474.929688 312.921875 468.65625 319.195312 460.917969 319.195312 L 446.4375 319.195312 L 446.4375 309.851562 L 460.917969 309.851562 C 463.496094 309.851562 465.585938 307.761719 465.585938 305.183594 L 465.585938 302.847656 C 465.585938 300.265625 463.496094 298.175781 460.917969 298.175781 L 455.3125 298.175781 C 447.574219 298.175781 441.300781 291.902344 441.300781 284.164062 Z M 441.300781 281.828125 " fill-opacity="1" fill-rule="evenodd"/><path fill="#ffffff" d="M 453.441406 262.214844 L 462.785156 262.214844 L 462.785156 272.488281 L 453.441406 272.488281 Z M 453.441406 262.214844 " fill-opacity="1" fill-rule="evenodd"/><path fill="#ffffff" d="M 453.441406 314.523438 L 462.785156 314.523438 L 462.785156 324.796875 L 453.441406 324.796875 Z M 453.441406 314.523438 " fill-opacity="1" fill-rule="evenodd"/><g fill="#ffffff" fill-opacity="1"><g transform="translate(33.841067, 334.464541)"><g><path d="M 46.113281 -94.382812 L 11.59375 -94.382812 L 11.59375 0 L 25.347656 0 L 25.347656 -31.414062 L 46.113281 -31.414062 C 66.472656 -31.414062 76.71875 -47.054688 76.71875 -62.832031 C 76.71875 -78.605469 66.472656 -94.382812 46.113281 -94.382812 Z M 46.113281 -44.898438 L 25.347656 -44.898438 L 25.347656 -80.628906 L 46.113281 -80.628906 C 57.574219 -80.628906 63.234375 -71.730469 63.234375 -62.695312 C 63.234375 -53.796875 57.574219 -44.898438 46.113281 -44.898438 Z M 46.113281 -44.898438 "/></g></g></g><g fill="#ffffff" fill-opacity="1"><g transform="translate(113.926549, 334.464541)"><g><path d="M 85.886719 0 L 85.886719 -72.945312 L 72.675781 -72.945312 L 72.808594 -63.234375 C 66.335938 -72 55.414062 -74.15625 46.382812 -74.15625 C 21.707031 -74.15625 7.414062 -56.496094 7.414062 -36.808594 C 7.414062 -16.71875 21.167969 1.214844 46.652344 1.214844 C 55.683594 1.078125 67.414062 -1.886719 72.675781 -9.84375 L 72.675781 0 Z M 72.675781 -36.539062 C 72.675781 -19.011719 58.515625 -10.515625 46.382812 -10.515625 C 30.203125 -10.515625 20.628906 -23.054688 20.628906 -36.808594 C 20.628906 -51.234375 30.335938 -62.5625 46.382812 -62.5625 C 58.785156 -62.5625 72.675781 -53.933594 72.675781 -36.539062 Z M 72.675781 -36.539062 "/></g></g></g><g fill="#ffffff" fill-opacity="1"><g transform="translate(208.573028, 334.464541)"><g><path d="M 59.191406 -74.023438 L 46.652344 -41.527344 L 38.15625 -17.796875 L 29.933594 -41.664062 L 16.71875 -74.023438 L 2.695312 -74.023438 L 31.144531 -3.773438 L 20.898438 22.515625 L 34.921875 22.515625 L 73.214844 -74.023438 Z M 59.191406 -74.023438 "/></g></g></g><g fill="#ffffff" fill-opacity="1"><g transform="translate(284.34414, 334.464541)"><g><path d="M 81.574219 -27.773438 L 67.953125 -27.773438 C 64.71875 -16.179688 55.011719 -10.515625 45.035156 -10.515625 C 32.496094 -10.515625 20.089844 -19.011719 20.089844 -36.539062 C 20.089844 -53.933594 32.628906 -62.425781 44.898438 -62.425781 C 54.875 -62.425781 64.71875 -56.765625 67.953125 -45.167969 L 81.574219 -45.167969 C 77.933594 -64.585938 61.347656 -74.15625 44.765625 -74.15625 C 25.753906 -74.15625 6.875 -61.753906 6.875 -36.539062 C 6.875 -11.460938 25.617188 1.078125 44.496094 1.078125 C 61.078125 1.078125 77.933594 -8.226562 81.574219 -27.773438 Z M 81.574219 -27.773438 "/></g></g></g><g fill="#ffffff" fill-opacity="1"><g transform="translate(372.653888, 334.464541)"><g><path d="M 10.113281 0 L 23.324219 0 L 23.324219 -94.382812 L 10.113281 -94.382812 Z M 10.113281 0 "/></g></g></g><g fill="#ffffff" fill-opacity="1"><g transform="translate(514.204523, 334.464541)"><g><path d="M 19.28125 -51.910156 C 19.28125 -59.460938 26.832031 -62.5625 34.921875 -62.5625 C 42.875 -62.5625 49.753906 -59.460938 50.425781 -52.988281 L 63.503906 -52.988281 C 62.5625 -68.226562 49.753906 -74.425781 35.324219 -74.425781 C 21.167969 -74.425781 6.203125 -68.496094 6.203125 -51.640625 C 6.203125 -35.324219 21.707031 -31.28125 34.785156 -30.742188 C 41.125 -30.472656 52.449219 -29.125 52.449219 -21.035156 C 52.449219 -12.40625 42.066406 -10.246094 35.460938 -10.246094 C 26.425781 -10.246094 18.875 -14.292969 18.335938 -22.382812 L 5.125 -22.382812 C 6.066406 -5.125 20.089844 1.214844 35.191406 1.214844 C 48.945312 1.214844 65.664062 -3.773438 65.664062 -20.765625 C 65.664062 -37.347656 50.023438 -41.664062 36.269531 -42.605469 C 29.796875 -43.011719 19.28125 -42.742188 19.28125 -51.910156 Z M 19.28125 -51.910156 "/></g></g></g><g fill="#ffffff" fill-opacity="1"><g transform="translate(584.447849, 334.464541)"><g><path d="M 63.910156 -9.574219 L 63.910156 0 L 76.449219 0 L 76.449219 -73.617188 L 63.234375 -73.617188 L 63.234375 -33.304688 C 63.234375 -20.496094 55.683594 -10.652344 41.796875 -10.652344 C 25.886719 -10.652344 22.382812 -20.089844 22.382812 -33.707031 L 22.382812 -73.617188 L 9.167969 -73.617188 L 9.167969 -33.707031 C 9.167969 -12.808594 18.742188 1.078125 40.855469 1.078125 C 50.292969 1.078125 58.515625 -1.617188 63.910156 -9.574219 Z M 63.910156 -9.574219 "/></g></g></g><g fill="#ffffff" fill-opacity="1"><g transform="translate(671.274533, 334.464541)"><g><path d="M 23.191406 -63.910156 L 23.191406 -72.808594 L 10.113281 -72.808594 L 10.113281 0 L 23.191406 0 L 23.191406 -39.503906 C 23.191406 -52.855469 33.4375 -62.695312 45.707031 -62.695312 C 47.863281 -62.695312 50.15625 -62.425781 52.449219 -61.753906 L 52.449219 -73.347656 C 49.484375 -74.023438 46.652344 -74.425781 43.820312 -74.425781 C 35.730469 -74.425781 28.449219 -71.191406 23.191406 -63.910156 Z M 23.191406 -63.910156 "/></g></g></g></svg>